
<svg xmlns="http://www.w3.org/2000/svg">
  <defs>
    <symbol id="close-menu" viewBox="0 0 24 24">
      <g fill="#fff" fill-rule="evenodd">
        <path d="M2.1.686 23.315 21.9 21.9 23.315.686 2.1z"/>
        <path d="M.686 21.9 21.9.685 23.315 2.1 2.1 23.314z"/>
      </g>
    </symbol>
    <symbol id="open-menu" viewBox="0 0 30 18">
      <path fill="#FFF" fill-rule="evenodd" d="M0 0h30v2H0zm0 8h30v2H0zm0 8h30v2H0z"/>
    </symbol>
    <symbol id="dark-mode" viewBox="0 0 17 16">
      <path fill="currentColor" d="M16.141 8.804a.823.823 0 0 0-.864-.115 6.622 6.622 0 0 1-2.772.6A6.704 6.704 0 0 1 5.81 2.626 7.066 7.066 0 0 1 6.015.981a.823.823 0 0 0-1.094-.93 8.341 8.341 0 1 0 11.516 9.617.823.823 0 0 0-.296-.864Zm-7.814 5.503A6.696 6.696 0 0 1 4.164 2.404v.222a8.35 8.35 0 0 0 10.069 8.16 6.671 6.671 0 0 1-5.906 3.554v-.033Z"/>
    </symbol>
    <symbol id="light-mode" viewBox="0 0 18 18">
      <path fill="currentColor" d="M2.7 9a.9.9 0 0 0-.9-.9H.9a.9.9 0 0 0 0 1.8h.9a.9.9 0 0 0 .9-.9Zm.576 4.5-.639.639a.9.9 0 0 0 0 1.269.9.9 0 0 0 1.269 0l.639-.639A.9.9 0 0 0 3.276 13.5ZM9 2.7a.9.9 0 0 0 .9-.9V.9a.9.9 0 0 0-1.8 0v.9a.9.9 0 0 0 .9.9Zm5.094 2.106a.9.9 0 0 0 .63-.261l.639-.639a.9.9 0 1 0-1.269-1.269l-.594.639a.9.9 0 0 0 0 1.269.9.9 0 0 0 .594.261Zm-10.8-.261a.9.9 0 0 0 1.269 0 .9.9 0 0 0 0-1.269l-.639-.639a.904.904 0 1 0-1.287 1.269l.657.639ZM17.1 8.1h-.9a.9.9 0 1 0 0 1.8h.9a.9.9 0 1 0 0-1.8Zm-2.376 5.4a.9.9 0 0 0-1.224 1.224l.639.639a.9.9 0 0 0 1.269 0 .9.9 0 0 0 0-1.269l-.684-.594ZM9 4.05A4.95 4.95 0 1 0 13.95 9 4.959 4.959 0 0 0 9 4.05Zm0 8.1a3.15 3.15 0 1 1 0-6.3 3.15 3.15 0 0 1 0 6.3Zm0 3.15a.9.9 0 0 0-.9.9v.9a.9.9 0 1 0 1.8 0v-.9a.9.9 0 0 0-.9-.9Z"/>
    </symbol>
    <symbol id="delete" viewBox="0 0 18 20">
      <path fill="currentColor" d="M7 16a1 1 0 0 0 1-1V9a1 1 0 1 0-2 0v6a1 1 0 0 0 1 1ZM17 4h-4V3a3 3 0 0 0-3-3H8a3 3 0 0 0-3 3v1H1a1 1 0 1 0 0 2h1v11a3 3 0 0 0 3 3h8a3 3 0 0 0 3-3V6h1a1 1 0 0 0 0-2ZM7 3a1 1 0 0 1 1-1h2a1 1 0 0 1 1 1v1H7V3Zm7 14a1 1 0 0 1-1 1H5a1 1 0 0 1-1-1V6h10v11Zm-3-1a1 1 0 0 0 1-1V9a1 1 0 0 0-2 0v6a1 1 0 0 0 1 1Z"/>
    </symbol>
    <symbol id="document" viewBox="0 0 14 16">
      <path fill="#FFF" d="M13.107 3.393c.167.167.31.393.429.678.119.286.178.548.178.786v10.286c0 .238-.083.44-.25.607a.827.827 0 0 1-.607.25h-12a.827.827 0 0 1-.607-.25.827.827 0 0 1-.25-.607V.857C0 .62.083.417.25.25A.827.827 0 0 1 .857 0h8c.238 0 .5.06.786.179.286.119.512.261.678.428l2.786 2.786ZM9.143 1.214v3.357H12.5c-.06-.172-.125-.294-.196-.366L9.509 1.411c-.072-.072-.194-.137-.366-.197Zm3.428 13.643V5.714H8.857a.827.827 0 0 1-.607-.25.827.827 0 0 1-.25-.607V1.143H1.143v13.714H12.57Z"/>
    </symbol>
    <symbol id="hide-preview" viewBox="0 0 16 15">
      <path fill="currentColor" d="M1.38.027a.795.795 0 0 1 .769.206L14.815 12.9a.792.792 0 0 1 0 1.124.792.792 0 0 1-1.124 0L9.234 9.567a2.77 2.77 0 0 1-3.753-3.753L1.024 1.357a.795.795 0 0 1 .357-1.33Zm.998 3.832 1.156 1.116a10.846 10.846 0 0 0-1.773 2.153c.696 1.117 2.929 4.038 6.333 3.959a6.127 6.127 0 0 0 1.346-.198l1.25 1.25a7.505 7.505 0 0 1-2.556.53h-.198c-4.663 0-7.331-4.282-7.83-5.145a.792.792 0 0 1 0-.792A12.58 12.58 0 0 1 2.378 3.86Zm5.328-2.272c4.726-.143 7.52 4.267 8.028 5.145.15.24.163.542.031.792a12.58 12.58 0 0 1-2.304 2.874l-1.195-1.116a10.846 10.846 0 0 0 1.813-2.154c-.705-1.116-2.937-4.045-6.333-3.958a6.127 6.127 0 0 0-1.346.198L5.149 2.117a7.505 7.505 0 0 1 2.557-.53Zm-.974 5.486v.055c0 .656.532 1.188 1.188 1.188l.047-.008-1.235-1.235Z"/>
    </symbol>
    <symbol id="show-preview" viewBox="0 0 16 12">
      <path fill="currentColor" d="M7.784.003c4.782-.144 7.597 4.31 8.109 5.198a.8.8 0 0 1 0 .8c-.688 1.2-3.255 5.086-7.677 5.198h-.2c-4.71 0-7.405-4.326-7.909-5.198a.8.8 0 0 1 0-.8C.803 4.001 3.362.115 7.784.003Zm.38 1.6h-.3c-3.199.08-5.286 2.71-6.086 3.998C2.482 6.73 4.73 9.68 8.176 9.6c3.199-.08 5.262-2.711 6.086-3.999-.712-1.127-2.967-4.086-6.398-3.998ZM8 2.803A2.799 2.799 0 1 1 8 8.4a2.799 2.799 0 0 1 0-5.598Zm0 1.599A1.2 1.2 0 1 0 8 6.8a1.2 1.2 0 0 0 0-2.4Z"/>
    </symbol>
    <symbol id="save" viewBox="0 0 17 17">
      <path fill="#FFF" d="M15.91 5.931 10.575.598A.889.889 0 0 0 10.29.41a.969.969 0 0 0-.345-.07H2.834A2.667 2.667 0 0 0 .167 3.007v10.666a2.667 2.667 0 0 0 2.667 2.667H13.5a2.667 2.667 0 0 0 2.667-2.667v-7.11a.889.889 0 0 0-.258-.632ZM5.5 2.118h3.556v1.778H5.5V2.118Zm5.334 12.444H5.5v-2.666a.89.89 0 0 1 .89-.89h3.555a.89.89 0 0 1 .889.89v2.666Zm3.555-.889a.89.89 0 0 1-.889.89h-.889v-2.667a2.667 2.667 0 0 0-2.666-2.667H6.389a2.667 2.667 0 0 0-2.666 2.667v2.666h-.89a.889.889 0 0 1-.888-.889V3.007a.89.89 0 0 1 .889-.89h.889v2.667c0 .491.398.89.888.89h5.334a.89.89 0 0 0 .889-.89V3.371l3.555 3.556v6.746Z"/>
    </symbol>
    <symbol id="logo" viewBox="0 0 130 12">
      <path fill="#FFF" d="M.75 11a241.166 241.166 0 0 0 .442-3.503l.443-3.585c.085-.645.163-1.255.232-1.83L2.086.305h2.497c.24.61.47 1.193.687 1.75.217.558.433 1.112.649 1.662l1.274 3.27h.165l1.238-3.262.626-1.65c.208-.546.427-1.136.656-1.77h2.468a1660.544 1660.544 0 0 0 .457 3.615l.458 3.6c.08.65.156 1.25.229 1.8.072.55.143 1.11.213 1.68h-2.347c-.09-.75-.178-1.463-.263-2.138a273.32 273.32 0 0 1-.232-1.897l-.315-2.535h-.165l-.93 2.722c-.225.67-.451 1.334-.679 1.991a252.74 252.74 0 0 0-.634 1.856H6.502a322.988 322.988 0 0 0-.952-2.523c-.17-.448-.337-.887-.502-1.317L4.013 4.43h-.165L3.54 6.95c-.07.595-.146 1.232-.229 1.91L3.053 11H.75Zm19.017 0a578.89 578.89 0 0 0 1.186-3.623L22.16 3.71c.215-.665.41-1.264.585-1.797.175-.532.35-1.069.525-1.609h3.18a469.731 469.731 0 0 0 1.11 3.406l1.193 3.675c.195.59.393 1.197.596 1.822l.581 1.792h-2.55a515.072 515.072 0 0 0-.982-3.45l-1.47-5.152h-.18l-1.486 5.1c-.16.555-.328 1.136-.506 1.744l-.514 1.758h-2.475Zm2.58-2.236.263-1.845h4.777l.21 1.846h-5.25ZM36.28 11V.303h4.103c.87 0 1.606.097 2.208.29.603.192 1.06.513 1.373.963.312.45.468 1.063.468 1.838 0 .615-.12 1.167-.363 1.657s-.632.878-1.166 1.163c-.535.284-1.236.427-2.1.427l.952-.9 1.455 2.145.72 1.061.746 1.103c.243.357.456.673.642.948H42.52c-.27-.42-.53-.822-.78-1.207-.25-.385-.492-.76-.727-1.125l-1.733-2.73 1.462 1.117H38.26v-1.76h1.785c.4 0 .736-.049 1.009-.146.272-.098.478-.264.618-.499s.21-.558.21-.968c0-.304-.044-.55-.134-.738a1.092 1.092 0 0 0-.364-.439 1.314 1.314 0 0 0-.51-.21 3.08 3.08 0 0 0-.567-.052h-3.36L38.703.694V11H36.28Zm21.538 0c-.33-.476-.642-.922-.934-1.34-.293-.417-.579-.828-.859-1.233l-1.41-2.018h-.69V4.475h.66l1.26-1.65a293.263 293.263 0 0 0 1.92-2.52h2.843a323.846 323.846 0 0 0-2.693 3.315L56.22 5.712l-.045-1.088 1.883 2.603a1120.463 1120.463 0 0 1 1.904 2.633c.316.434.593.815.833 1.14h-2.977Zm-6.158 0V.303h2.46V11h-2.46Zm15.478 0V.303h4.252c.815 0 1.54.118 2.175.353.635.235 1.171.58 1.609 1.035a4.525 4.525 0 0 1 1.001 1.669c.23.657.345 1.408.345 2.253 0 .755-.101 1.46-.304 2.112a4.523 4.523 0 0 1-.967 1.713c-.443.49-1.026.873-1.751 1.148-.726.275-1.61.412-2.656.412h-3.704Zm2.467-1.973h1.23c.77 0 1.381-.15 1.834-.45.452-.3.779-.71.978-1.23.2-.52.3-1.108.3-1.763 0-.494-.058-.944-.176-1.35a2.869 2.869 0 0 0-.54-1.046 2.374 2.374 0 0 0-.926-.675c-.375-.157-.823-.236-1.343-.236h-1.357v6.75Zm18.635 2.175c-.965 0-1.8-.149-2.505-.446-.705-.298-1.285-.705-1.74-1.223a5.116 5.116 0 0 1-1.016-1.773 6.574 6.574 0 0 1-.334-2.1c0-1.04.206-1.982.619-2.824A4.743 4.743 0 0 1 85.109.83c.817-.495 1.839-.743 3.064-.743.93 0 1.742.144 2.437.431a4.759 4.759 0 0 1 1.736 1.196c.463.51.809 1.1 1.039 1.77.23.67.345 1.39.345 2.16 0 1.065-.211 2.015-.634 2.85a4.769 4.769 0 0 1-1.856 1.98c-.815.486-1.815.728-3 .728Zm-.037-2.033c.495 0 .927-.093 1.297-.28.37-.188.677-.447.922-.777.246-.33.43-.706.552-1.129a4.8 4.8 0 0 0 .183-1.338c0-.495-.066-.957-.198-1.384a3.428 3.428 0 0 0-.578-1.121 2.67 2.67 0 0 0-.926-.75 2.796 2.796 0 0 0-1.252-.27c-.486 0-.914.092-1.287.277a2.63 2.63 0 0 0-.933.769c-.25.327-.44.704-.57 1.128a4.59 4.59 0 0 0-.195 1.35c0 .475.062.924.187 1.347.125.422.311.797.559 1.125.247.327.557.585.93.772.372.188.808.281 1.308.281ZM102.105 11l-.45-1.698c-.16-.603-.31-1.162-.45-1.677l-.885-3.36a559.983 559.983 0 0 1-1.05-3.96h2.782a1464.078 1464.078 0 0 0 .855 4.125l.743 3.638h.188l.765-3.683c.09-.42.183-.863.28-1.33l.297-1.407.285-1.343h2.632a1211.281 1211.281 0 0 0 .886 4.095l.794 3.668h.18l.758-3.69c.13-.63.269-1.307.416-2.032l.416-2.04h2.79a263.82 263.82 0 0 0-.543 2.002c-.188.7-.361 1.345-.522 1.935l-.915 3.382a371.8 371.8 0 0 0-.457 1.696c-.16.6-.313 1.16-.458 1.68h-3c-.14-.6-.287-1.23-.442-1.887-.155-.657-.3-1.284-.435-1.878l-.795-3.39h-.188l-.764 3.39c-.13.59-.272 1.217-.424 1.882-.153.665-.297 1.292-.431 1.882h-2.858Zm18.605 0V.304h2.153c.5.73.972 1.42 1.417 2.067l1.335 1.946 1.74 2.52h.18V.304h2.317V11h-2.13c-.41-.6-.84-1.225-1.29-1.875l-1.477-2.13-1.763-2.55h-.172V11h-2.31Z"/>
    </symbol>
  </defs>
</svg>