<svg xmlns="http://www.w3.org/2000/svg">
  <defs>
    <symbol id="logo" width="97" height="26" viewBox="0 0 97 26">
      <path fill="currentColor" d="m10.528 25 4.064-11.2L18.624 25h4.16l6.048-17.472H23.84l-3.392 10.144-3.776-10.144h-4.16L8.704 17.672 5.312 7.528H.352L6.368 25h4.16Zm28.324.384c1.728 0 3.296-.395 4.704-1.184a9.132 9.132 0 0 0 3.376-3.248c.842-1.376 1.264-2.939 1.264-4.688 0-1.77-.422-3.339-1.264-4.704a9.173 9.173 0 0 0-3.376-3.232c-1.408-.79-2.976-1.184-4.704-1.184-1.728 0-3.302.395-4.72 1.184a9.138 9.138 0 0 0-3.392 3.232c-.843 1.365-1.264 2.933-1.264 4.704 0 1.75.42 3.312 1.264 4.688a9.097 9.097 0 0 0 3.392 3.248c1.418.79 2.992 1.184 4.72 1.184Zm0-4.32c-1.302 0-2.363-.448-3.184-1.344-.822-.896-1.232-2.048-1.232-3.456 0-1.387.41-2.533 1.232-3.44.82-.907 1.882-1.36 3.184-1.36 1.3 0 2.357.453 3.168 1.36.81.907 1.216 2.053 1.216 3.44 0 1.408-.406 2.56-1.216 3.456-.811.896-1.867 1.344-3.168 1.344ZM55.367 25v-9.408c0-1.301.363-2.31 1.088-3.024.725-.715 1.675-1.072 2.848-1.072h1.504v-4.16h-1.024c-1.067 0-2.01.197-2.832.592-.821.395-1.456 1.136-1.904 2.224V7.528h-4.48V25h4.8Zm11.908 0v-5.344l1.92-2.112L73.643 25h5.44l-6.304-10.432 6.336-7.04h-5.92l-5.92 6.304V.776h-4.8V25h4.8ZM83.598 4.68V1.16h-1.92v3.52h1.92Zm0 20.32V8.008h-1.92V25h1.92Zm11.012.192c.17 0 .405-.01.704-.032.298-.021.565-.064.8-.128v-1.76a11.29 11.29 0 0 1-1.216.096c-.768 0-1.355-.139-1.76-.416a2.012 2.012 0 0 1-.816-1.088 4.628 4.628 0 0 1-.208-1.376V9.832h3.712V8.008h-3.712V4.04h-1.92v1.824c0 .661-.176 1.184-.528 1.568-.352.384-.838.576-1.456.576h-1.216v1.824h3.2v10.656c0 1.536.378 2.704 1.136 3.504.757.8 1.85 1.2 3.28 1.2Z" />
    </symbol>
    <symbol id="twitter" width="20" height="17" viewBox="0 0 20 17">
      <path fill="currentColor" d="M20 2.172a8.192 8.192 0 0 1-2.357.646 4.11 4.11 0 0 0 1.805-2.27 8.22 8.22 0 0 1-2.606.996A4.096 4.096 0 0 0 13.847.248c-2.65 0-4.596 2.472-3.998 5.037A11.648 11.648 0 0 1 1.392 1a4.109 4.109 0 0 0 1.27 5.478 4.086 4.086 0 0 1-1.858-.513c-.045 1.9 1.318 3.679 3.291 4.075a4.113 4.113 0 0 1-1.853.07 4.106 4.106 0 0 0 3.833 2.849A8.25 8.25 0 0 1 0 14.658a11.616 11.616 0 0 0 6.29 1.843c7.618 0 11.923-6.434 11.663-12.205A8.354 8.354 0 0 0 20 2.172Z" />
    </symbol>
    <symbol id="instagram" width="20" height="20" viewBox="0 0 20 20">
      <path fill="currentColor" d="M10 1.802c2.67 0 2.987.01 4.042.059 2.71.123 3.975 1.409 4.099 4.099.048 1.054.057 1.37.057 4.04 0 2.672-.01 2.988-.057 4.042-.124 2.687-1.387 3.975-4.1 4.099-1.054.048-1.37.058-4.041.058-2.67 0-2.987-.01-4.04-.058-2.717-.124-3.977-1.416-4.1-4.1-.048-1.054-.058-1.37-.058-4.041 0-2.67.01-2.986.058-4.04.124-2.69 1.387-3.977 4.1-4.1 1.054-.048 1.37-.058 4.04-.058ZM10 0C7.284 0 6.944.012 5.877.06 2.246.227.227 2.242.061 5.877.01 6.944 0 7.284 0 10s.012 3.057.06 4.123c.167 3.632 2.182 5.65 5.817 5.817 1.067.048 1.407.06 4.123.06s3.057-.012 4.123-.06c3.629-.167 5.652-2.182 5.816-5.817.05-1.066.061-1.407.061-4.123s-.012-3.056-.06-4.122C19.777 2.249 17.76.228 14.124.06 13.057.01 12.716 0 10 0Zm0 4.865a5.135 5.135 0 1 0 0 10.27 5.135 5.135 0 0 0 0-10.27Zm0 8.468a3.333 3.333 0 1 1 0-6.666 3.333 3.333 0 0 1 0 6.666Zm5.338-9.87a1.2 1.2 0 1 0 0 2.4 1.2 1.2 0 0 0 0-2.4Z" />
    </symbol>
    <symbol id="facebook" width="20" height="20" viewBox="0 0 20 20">
      <path fill="currentColor" d="M18.896 0H1.104C.494 0 0 .494 0 1.104v17.793C0 19.506.494 20 1.104 20h9.58v-7.745H8.076V9.237h2.606V7.01c0-2.583 1.578-3.99 3.883-3.99 1.104 0 2.052.082 2.329.119v2.7h-1.598c-1.254 0-1.496.597-1.496 1.47v1.928h2.989l-.39 3.018h-2.6V20h5.098c.608 0 1.102-.494 1.102-1.104V1.104C20 .494 19.506 0 18.896 0Z" />
    </symbol>
  </defs>
</svg>